
<!-- This is embedded directly into body-start.html -->

<svg id="site-logo" width="50" height="50" version="1.1" xmlns="http://www.w3.org/2000/svg">
  <g transform="matrix(.34722 0 0 .34722 -5.5556 -309.85)">
    <path d="m88 892.36c-39.765 0-72 32.234-72 72 0 39.763 32.235 72 72 72 39.764 0 72-32.237 72-72 0-39.766-32.236-72-72-72zm12.031 19.469 27.969 16.531-28 16.531zm-12.031 8.5c2.0513 0 4.0571.16348 6.0312.4375v6.125c-1.9633-.31757-3.974-.5-6.0312-.5-15.993 0-29.671 9.8014-35.281 23.75l-5.1875-3.0625c6.7361-15.703 22.338-26.75 40.469-26.75zm0 14.969c2.0539 0 4.0616.2445 6 .65625v6.2188c-1.913-.51143-3.9233-.78125-6-.78125-10.503 0-19.272 6.9793-22.031 16.562l-5.375-3.1875c3.976-11.313 14.777-19.469 27.406-19.469zm35.312 2.7812c5.4766 7.3423 8.7188 16.447 8.7188 26.281 0 9.9876-3.3661 19.225-9 26.625l-5.2188-3.0938c5.1065-6.4644 8.1562-14.625 8.1562-23.531 0-8.7392-2.9401-16.782-7.875-23.188zm-13.031 7.7188c4.2193 5.0467 6.7812 11.513 6.7812 18.562 0 7.209-2.6717 13.841-7.0625 18.938l-5.3438-3.1562c3.9062-4.1023 6.3125-9.6294 6.3125-15.781 0-5.9771-2.2607-11.391-5.9688-15.469zm-73.25 2.0312 27.969 16.531-28 16.531zm28.938 22.938c2.7592 9.5756 11.528 16.531 22.031 16.531 2.0771 0 4.0865-.27874 6-.78125v6.25c-1.9384.4118-3.9461.6563-6 .6563-12.639 0-23.439-8.1732-27.406-19.5zm-13.25 7.8125c5.6107 13.949 19.288 23.75 35.281 23.75 2.0373 0 4.0226-.1616 5.9688-.4687v6.0937c-1.9505.2713-3.942.4375-5.9688.4375-18.131 0-33.733-11.047-40.469-26.75zm47.281 5.7812 27.969 16.5-28 16.531z" style="fill:#ffffff"/>
  </g>
</svg>
